<?xml version="1.0" encoding="iso-8859-1"?>
<svg xmlns="http://www.w3.org/2000/svg" xmlns:xlink="http://www.w3.org/1999/xlink" version="1.1" id="Capa_1" x="0px" y="0px" viewBox="0 0 512 512" style="enable-background:new 0 0 512 512;" xml:space="preserve" width="512" height="512">
<g>
	<path d="M0,262.785c0.648,24.61,4.887,49.096,12.703,72.808c6.937,0.787,121.127,102.408,291.294,22.482   c91.562-43.006,162.473-126.239,166.237-242.158c-12.842-19.723-28.215-37.42-45.728-52.711   C386.54,248.59,163.552,349.941,0,262.785z"/>
	<path d="M21.336,153.797c-10.706,24.665-17.228,49.891-19.958,75.192c70.053,43.42,163.977,47.394,245.993,8.872   c81.648-38.35,138.923-113.551,150.215-195.15c-21.586-14.267-45.177-25.186-70.493-32.542   C275.371,128.946,143.65,189.336,21.336,153.797z"/>
	<path d="M297.259,3.386C194.299-13.648,88.864,34.546,35.181,126.467C140.886,154.08,251.153,102.373,297.259,3.386z"/>
	<path d="M495.977,167.004C458.86,363.366,208.207,480.171,34.238,383.772C98.946,496.427,241.697,545.416,364.831,487.58   C487.473,429.975,541.546,289.23,495.977,167.004z"/>
</g></svg>
